<svg width="12.000000" height="13.000000" viewBox="0 0 12 13" fill="none" xmlns="http://www.w3.org/2000/svg" xmlns:xlink="http://www.w3.org/1999/xlink">
	<desc>
			Created with Pixso.
	</desc>
	<defs/>
	<path id="Vector" d="M9 -0.67C8.81 -0.67 8.66 -0.52 8.66 -0.34L8.66 1.58L7.66 1.58C7.11 1.58 6.66 2.03 6.66 2.58L6.66 9C6.66 9.55 7.11 10 7.66 10L8.66 10L8.66 12.33C8.66 12.51 8.81 12.66 9 12.66L9.66 12.66C9.85 12.66 10 12.51 10 12.33L10 10L11 10C11.55 10 12 9.55 12 9L12 2.58C12 2.03 11.55 1.58 11 1.58L10 1.58L10 -0.34C10 -0.52 9.85 -0.67 9.66 -0.67L9 -0.67ZM2 1.66C2 1.48 2.14 1.33 2.33 1.33L3 1.33C3.18 1.33 3.33 1.48 3.33 1.66L3.33 5.33L4.33 5.33C4.88 5.33 5.33 5.78 5.33 6.33L5.33 10.33C5.33 10.88 4.88 11.33 4.33 11.33L3.33 11.33L3.33 12.33C3.33 12.51 3.18 12.66 3 12.66L2.33 12.66C2.14 12.66 2 12.51 2 12.33L2 11.33L1 11.33C0.44 11.33 0 10.88 0 10.33L0 6.33C0 5.78 0.44 5.33 1 5.33L2 5.33L2 1.66ZM8 8.66L8 2.91L10.66 2.91L10.66 8.66L8 8.66ZM1.33 10L1.33 6.66L4 6.66L4 10L1.33 10Z" fill="#1B1B1B" fill-opacity="1.000000" fill-rule="evenodd"/>
</svg>
