<svg width="16.000000" height="16.000000" viewBox="0 0 16 16" fill="none" xmlns="http://www.w3.org/2000/svg" xmlns:xlink="http://www.w3.org/1999/xlink">
	<desc>
			Created with Pixso.
	</desc>
	<defs>
		<clipPath id="clip312_14003">
			<rect id="ph:sun-bold" width="16.000000" height="16.000000" fill="white" fill-opacity="0"/>
		</clipPath>
	</defs>
	<rect id="ph:sun-bold" width="16.000000" height="16.000000" fill="#FFFFFF" fill-opacity="0"/>
	<g clip-path="url(#clip312_14003)">
		<path id="Vector" d="M7.25 2.25L7.25 1.25C7.25 1.05 7.32 0.86 7.46 0.71C7.61 0.57 7.8 0.5 8 0.5C8.19 0.5 8.38 0.57 8.53 0.71C8.67 0.86 8.75 1.05 8.75 1.25L8.75 2.25C8.75 2.44 8.67 2.63 8.53 2.78C8.38 2.92 8.19 3 8 3C7.8 3 7.61 2.92 7.46 2.78C7.32 2.63 7.25 2.44 7.25 2.25ZM12.25 8C12.25 8.84 12 9.66 11.53 10.36C11.06 11.06 10.4 11.6 9.62 11.92C8.84 12.24 7.99 12.33 7.17 12.16C6.34 12 5.58 11.59 4.99 11C4.4 10.41 3.99 9.65 3.83 8.82C3.66 8 3.75 7.15 4.07 6.37C4.39 5.59 4.93 4.93 5.63 4.46C6.33 3.99 7.15 3.75 8 3.75C9.12 3.75 10.2 4.19 11 4.99C11.8 5.79 12.24 6.87 12.25 8ZM10.75 8C10.75 7.45 10.58 6.92 10.28 6.47C9.98 6.01 9.55 5.66 9.05 5.45C8.54 5.25 7.99 5.19 7.46 5.3C6.92 5.4 6.44 5.67 6.05 6.05C5.67 6.44 5.4 6.92 5.3 7.46C5.19 7.99 5.25 8.54 5.45 9.05C5.66 9.55 6.01 9.98 6.47 10.28C6.92 10.58 7.45 10.75 8 10.75C8.72 10.74 9.42 10.45 9.94 9.94C10.45 9.42 10.74 8.72 10.75 8ZM3.21 4.28C3.28 4.35 3.37 4.4 3.46 4.44C3.55 4.48 3.65 4.5 3.75 4.5C3.84 4.5 3.94 4.48 4.03 4.44C4.12 4.4 4.21 4.35 4.28 4.28C4.35 4.21 4.4 4.12 4.44 4.03C4.48 3.94 4.5 3.84 4.5 3.74C4.5 3.65 4.48 3.55 4.44 3.46C4.4 3.37 4.35 3.28 4.28 3.21L3.53 2.46C3.39 2.32 3.2 2.24 3 2.24C2.8 2.24 2.61 2.32 2.46 2.46C2.32 2.6 2.24 2.79 2.24 2.99C2.24 3.19 2.32 3.38 2.46 3.53L3.21 4.28ZM3.21 11.71L2.46 12.46C2.39 12.53 2.34 12.62 2.3 12.71C2.26 12.8 2.24 12.9 2.24 12.99C2.24 13.09 2.26 13.19 2.3 13.28C2.34 13.37 2.39 13.46 2.46 13.53C2.61 13.67 2.8 13.75 3 13.75C3.09 13.75 3.19 13.73 3.28 13.69C3.37 13.65 3.46 13.6 3.53 13.53L4.28 12.78C4.42 12.63 4.5 12.44 4.5 12.24C4.5 12.04 4.42 11.85 4.28 11.71C4.14 11.57 3.95 11.49 3.75 11.49C3.55 11.49 3.36 11.57 3.21 11.71ZM12.25 4.5C12.34 4.5 12.44 4.48 12.53 4.44C12.62 4.4 12.71 4.35 12.78 4.28L13.53 3.53C13.6 3.46 13.65 3.37 13.69 3.28C13.73 3.19 13.75 3.09 13.75 2.99C13.75 2.9 13.73 2.8 13.69 2.71C13.65 2.62 13.6 2.53 13.53 2.46C13.46 2.39 13.37 2.34 13.28 2.3C13.19 2.26 13.09 2.24 12.99 2.24C12.9 2.24 12.8 2.26 12.71 2.3C12.62 2.34 12.53 2.39 12.46 2.46L11.71 3.21C11.61 3.32 11.54 3.45 11.51 3.6C11.48 3.74 11.49 3.9 11.55 4.03C11.61 4.17 11.7 4.29 11.83 4.37C11.95 4.45 12.1 4.5 12.25 4.5ZM12.78 11.71C12.63 11.57 12.44 11.49 12.24 11.49C12.04 11.49 11.85 11.57 11.71 11.71C11.57 11.86 11.49 12.05 11.49 12.25C11.49 12.45 11.57 12.64 11.71 12.78L12.46 13.53C12.6 13.67 12.79 13.75 12.99 13.75C13.19 13.75 13.38 13.67 13.53 13.53C13.67 13.39 13.75 13.2 13.75 13C13.75 12.8 13.67 12.61 13.53 12.46L12.78 11.71ZM3 8C3 7.8 2.92 7.61 2.78 7.46C2.63 7.32 2.44 7.25 2.25 7.25L1.25 7.25C1.05 7.25 0.86 7.32 0.71 7.46C0.57 7.61 0.5 7.8 0.5 8C0.5 8.19 0.57 8.38 0.71 8.53C0.86 8.67 1.05 8.75 1.25 8.75L2.25 8.75C2.44 8.75 2.63 8.67 2.78 8.53C2.92 8.38 3 8.19 3 8ZM8 13C7.8 13 7.61 13.07 7.46 13.21C7.32 13.36 7.25 13.55 7.25 13.75L7.25 14.75C7.25 14.94 7.32 15.13 7.46 15.28C7.61 15.42 7.8 15.5 8 15.5C8.19 15.5 8.38 15.42 8.53 15.28C8.67 15.13 8.75 14.94 8.75 14.75L8.75 13.75C8.75 13.55 8.67 13.36 8.53 13.21C8.38 13.07 8.19 13 8 13ZM14.75 7.25L13.75 7.25C13.55 7.25 13.36 7.32 13.21 7.46C13.07 7.61 13 7.8 13 8C13 8.19 13.07 8.38 13.21 8.53C13.36 8.67 13.55 8.75 13.75 8.75L14.75 8.75C14.94 8.75 15.13 8.67 15.28 8.53C15.42 8.38 15.5 8.19 15.5 8C15.5 7.8 15.42 7.61 15.28 7.46C15.13 7.32 14.94 7.25 14.75 7.25Z" fill="#FFFFFF" fill-opacity="1.000000" fill-rule="nonzero"/>
	</g>
</svg>
