<svg xmlns="http://www.w3.org/2000/svg" width="20" height="20" viewBox="0 0 20 20" fill="none">
  <g clip-path="url(#clip0_1558_3529)">
    <rect width="20" height="20" rx="10" fill="white"/>
    <circle cx="10" cy="10" r="10" fill="#F7931A"/>
    <path fill-rule="evenodd" clip-rule="evenodd" d="M11.7189 9.97218C12.3244 9.82537 12.7824 9.41377 12.9087 8.56675C13.0829 7.40978 12.231 6.79302 11.0636 6.3852L11.4513 4.81726L10.526 4.58512L10.1483 6.11164C9.90557 6.05015 9.65604 5.99243 9.40775 5.93596L9.78796 4.39877L8.86326 4.16663L8.47558 5.73393C8.27396 5.68813 8.07608 5.64233 7.88441 5.59402L7.88566 5.58962L6.60999 5.26838L6.35797 6.28732C6.35797 6.28732 7.04434 6.44606 7.0294 6.45547C7.40464 6.55021 7.47122 6.80494 7.45878 7.0076L7.01696 8.79388C7.04978 8.80213 7.082 8.81261 7.11341 8.82525L7.01509 8.80078L6.39655 11.3029C6.34988 11.4203 6.23289 11.5966 5.97029 11.532C5.97962 11.5451 5.29823 11.3626 5.29823 11.3626L4.83276 12.4555L6.03687 12.7586C6.1724 12.7927 6.30611 12.8278 6.43855 12.8626L6.43881 12.8626L6.439 12.8627C6.52532 12.8853 6.6111 12.9078 6.69649 12.9299L6.30445 14.516L7.22791 14.7481L7.61621 13.1796C7.86109 13.2465 8.1067 13.3107 8.35299 13.3722L7.96655 14.9345L8.89126 15.1666L9.28329 13.5843C10.8614 13.8823 12.0499 13.7518 12.5577 12.2792C12.9666 11.0934 12.5471 10.4133 11.7189 9.97218ZM15.9091 13.6972L16.2482 12.3275L17.6066 12.6695L17.8325 11.756L16.4741 11.4146L16.8126 10.045L15.9072 9.81721L15.5681 11.1869L14.2096 10.8456L13.9837 11.7585L15.3422 12.0998L15.0037 13.4701L15.9091 13.6972ZM10.7759 11.6319C11.0505 10.5208 9.45264 10.1601 8.67117 9.98363L8.67116 9.98363C8.58329 9.96379 8.50574 9.94628 8.44233 9.9303L7.92397 12.0303C7.97593 12.0433 8.03684 12.0595 8.10504 12.0777C8.86025 12.2789 10.5089 12.7183 10.7771 11.6312L10.7759 11.6319ZM9.34265 7.10692C9.99417 7.25186 11.3288 7.54874 11.0793 8.56005C10.8343 9.54927 9.45881 9.1778 8.8306 9.00814C8.77428 8.99293 8.72396 8.97934 8.68101 8.9685L9.15207 7.06301C9.20482 7.07626 9.26942 7.09063 9.34265 7.10692Z" fill="white"/>
  </g>
  <defs>
    <clipPath id="clip0_1558_3529">
      <rect width="20" height="20" rx="10" fill="white"/>
    </clipPath>
  </defs>
</svg>