<svg width="24.000000" height="24.000000" viewBox="0 0 24 24" fill="none" xmlns="http://www.w3.org/2000/svg" xmlns:xlink="http://www.w3.org/1999/xlink">
	<desc>
			Created with Pixso.
	</desc>
	<defs/>
	<path id="Vector" d="M11.3335 18L12.6665 18L12.6665 10.667L11.3335 10.667L11.3335 18ZM12 8.76953C12.2329 8.76953 12.4277 8.69043 12.584 8.5332C12.7412 8.37598 12.8198 8.18164 12.8198 7.94922C12.8198 7.7168 12.7412 7.52148 12.584 7.36426C12.4277 7.20703 12.2329 7.12793 12 7.12793C11.7671 7.12793 11.5723 7.20703 11.416 7.36426C11.2588 7.52148 11.1802 7.7168 11.1802 7.94922C11.1802 8.18164 11.2588 8.37598 11.416 8.5332C11.5723 8.69043 11.7671 8.76953 12 8.76953ZM12.0039 24C10.3452 24 8.78516 23.6855 7.32422 23.0557C5.86377 22.4258 4.59277 21.5703 3.51221 20.4902C2.43115 19.4111 1.57568 18.1426 0.945312 16.6826C0.314941 15.2227 0 13.6631 0 12.0039C0 10.3457 0.314453 8.78516 0.943848 7.32422C1.57422 5.86328 2.4292 4.59277 3.50928 3.51172C4.58838 2.43066 5.85791 1.5752 7.31738 0.945312C8.77686 0.31543 10.3364 0 11.9961 0C13.6548 0 15.2148 0.314453 16.6758 0.944336C18.1362 1.57422 19.4072 2.42969 20.4878 3.50977C21.5688 4.58887 22.4243 5.85742 23.0547 7.31738C23.6851 8.77734 24 10.3369 24 11.9961C24 13.6543 23.6855 15.2148 23.0562 16.6758C22.4258 18.1367 21.5708 19.4072 20.4907 20.4883C19.4116 21.5693 18.1421 22.4248 16.6826 23.0547C15.2231 23.6846 13.6636 24 12.0039 24ZM12 22.667C14.9775 22.667 17.5 21.6338 19.5669 19.5664C21.6333 17.5 22.6665 14.9775 22.6665 12C22.6665 9.02246 21.6333 6.5 19.5669 4.43359C17.5 2.36621 14.9775 1.33301 12 1.33301C9.02246 1.33301 6.5 2.36621 4.43311 4.43359C2.3667 6.5 1.3335 9.02246 1.3335 12C1.3335 14.9775 2.3667 17.5 4.43311 19.5664C6.5 21.6338 9.02246 22.667 12 22.667Z" fill="#0077FF" fill-opacity="1.000000" fill-rule="nonzero"/>
</svg>
