<svg width="32.000000" height="32.000000" viewBox="0 0 32 32" fill="none" xmlns="http://www.w3.org/2000/svg" xmlns:xlink="http://www.w3.org/1999/xlink">
	<desc>
			Created with Pixso.
	</desc>
	<defs>
		<clipPath id="clip3117_15949">
			<rect id="material-symbols-light:info-outline" width="32.000000" height="32.000000" fill="white" fill-opacity="0"/>
		</clipPath>
	</defs>
	<rect id="material-symbols-light:info-outline" width="32.000000" height="32.000000" fill="#FFFFFF" fill-opacity="0"/>
	<g clip-path="url(#clip3117_15949)">
		<path id="Vector" d="M15.3335 22L16.6665 22L16.6665 14.667L15.3335 14.667L15.3335 22ZM16 12.7695C16.2329 12.7695 16.4277 12.6904 16.584 12.5332C16.7412 12.376 16.8198 12.1816 16.8198 11.9492C16.8198 11.7168 16.7412 11.5215 16.584 11.3643C16.4277 11.207 16.2329 11.1279 16 11.1279C15.7671 11.1279 15.5723 11.207 15.416 11.3643C15.2588 11.5215 15.1802 11.7168 15.1802 11.9492C15.1802 12.1816 15.2588 12.376 15.416 12.5332C15.5723 12.6904 15.7671 12.7695 16 12.7695ZM16.0039 28C14.3452 28 12.7852 27.6855 11.3242 27.0557C9.86377 26.4258 8.59277 25.5703 7.51221 24.4902C6.43115 23.4111 5.57568 22.1426 4.94531 20.6826C4.31494 19.2227 4 17.6631 4 16.0039C4 14.3457 4.31445 12.7852 4.94385 11.3242C5.57422 9.86328 6.4292 8.59277 7.50928 7.51172C8.58838 6.43066 9.85791 5.5752 11.3174 4.94531C12.7769 4.31543 14.3364 4 15.9961 4C17.6548 4 19.2148 4.31445 20.6758 4.94434C22.1362 5.57422 23.4072 6.42969 24.4878 7.50977C25.5688 8.58887 26.4243 9.85742 27.0547 11.3174C27.6851 12.7773 28 14.3369 28 15.9961C28 17.6543 27.6855 19.2148 27.0562 20.6758C26.4258 22.1367 25.5708 23.4072 24.4907 24.4883C23.4116 25.5693 22.1421 26.4248 20.6826 27.0547C19.2231 27.6846 17.6636 28 16.0039 28ZM16 26.667C18.9775 26.667 21.5 25.6338 23.5669 23.5664C25.6333 21.5 26.6665 18.9775 26.6665 16C26.6665 13.0225 25.6333 10.5 23.5669 8.43359C21.5 6.36621 18.9775 5.33301 16 5.33301C13.0225 5.33301 10.5 6.36621 8.43311 8.43359C6.3667 10.5 5.3335 13.0225 5.3335 16C5.3335 18.9775 6.3667 21.5 8.43311 23.5664C10.5 25.6338 13.0225 26.667 16 26.667Z" fill="#0077FF" fill-opacity="1.000000" fill-rule="nonzero"/>
	</g>
</svg>
