<svg width="16.000000" height="16.000000" viewBox="0 0 16 16" fill="none" xmlns="http://www.w3.org/2000/svg" xmlns:xlink="http://www.w3.org/1999/xlink">
	<desc>
			Created with Pixso.
	</desc>
	<defs>
		<clipPath id="clip297_12640">
			<rect id="ph:moon" width="16.000000" height="16.000000" transform="translate(0.000000 -0.500000)" fill="white" fill-opacity="0"/>
		</clipPath>
	</defs>
	<rect id="ph:moon" width="16.000000" height="16.000000" transform="translate(0.000000 -0.500000)" fill="#FFFFFF" fill-opacity="0"/>
	<g clip-path="url(#clip297_12640)">
		<path id="Vector" d="M14.59 8.38C14.53 8.32 14.45 8.27 14.36 8.25C14.27 8.23 14.18 8.23 14.09 8.26C13.14 8.55 12.12 8.57 11.16 8.33C10.19 8.09 9.31 7.59 8.61 6.88C7.9 6.18 7.4 5.3 7.16 4.33C6.92 3.36 6.94 2.35 7.23 1.4C7.26 1.31 7.26 1.22 7.24 1.13C7.21 1.04 7.17 0.96 7.1 0.9C7.04 0.83 6.96 0.79 6.87 0.76C6.78 0.74 6.69 0.75 6.6 0.77C5.29 1.18 4.13 1.99 3.3 3.08C2.57 4.05 2.13 5.2 2.02 6.4C1.91 7.61 2.13 8.82 2.67 9.9C3.21 10.98 4.04 11.89 5.07 12.53C6.1 13.16 7.29 13.5 8.5 13.5C9.91 13.5 11.28 13.04 12.4 12.19C13.5 11.36 14.31 10.2 14.72 8.88C14.74 8.8 14.74 8.7 14.72 8.62C14.7 8.53 14.66 8.45 14.59 8.38ZM11.8 11.39C10.74 12.19 9.43 12.58 8.11 12.48C6.79 12.39 5.54 11.83 4.6 10.89C3.67 9.95 3.1 8.7 3.01 7.38C2.91 6.06 3.3 4.75 4.1 3.69C4.62 3 5.29 2.45 6.06 2.06C6.02 2.37 6 2.68 6 3C6 4.72 6.68 6.37 7.9 7.59C9.12 8.81 10.77 9.49 12.5 9.5C12.81 9.5 13.12 9.47 13.43 9.43C13.04 10.2 12.49 10.87 11.8 11.39Z" fill="#000000" fill-opacity="1.000000" fill-rule="nonzero"/>
	</g>
</svg>
