<svg xmlns="http://www.w3.org/2000/svg" width="20" height="20" viewBox="0 0 20 20" fill="none">
  <path d="M18.2454 11.1136C18.1652 11.0333 18.0647 10.9763 17.9546 10.9488C17.8445 10.9212 17.7289 10.9242 17.6204 10.9574C16.4286 11.3176 15.1615 11.3479 13.9539 11.0448C12.7464 10.7417 11.6437 10.1167 10.7633 9.23631C9.88296 8.35595 9.25794 7.25325 8.95486 6.04569C8.65178 4.83814 8.68198 3.57098 9.04226 2.37924C9.0757 2.27065 9.0789 2.15499 9.05153 2.04472C9.02415 1.93444 8.96723 1.83371 8.88688 1.75337C8.80654 1.67303 8.70581 1.6161 8.59554 1.58873C8.48526 1.56135 8.36961 1.56455 8.26101 1.59799C6.61338 2.10271 5.1669 3.11423 4.12742 4.48861C3.21837 5.69553 2.66387 7.13203 2.52622 8.63672C2.38857 10.1414 2.67323 11.6547 3.34821 13.0065C4.02319 14.3583 5.06175 15.4951 6.34721 16.2893C7.63267 17.0834 9.11411 17.5033 10.6251 17.5019C12.3878 17.5073 14.1037 16.9343 15.5095 15.8706C16.8838 14.8312 17.8954 13.3847 18.4001 11.7371C18.4331 11.6289 18.4362 11.5137 18.409 11.4039C18.3817 11.2941 18.3252 11.1938 18.2454 11.1136ZM14.7579 14.8722C13.4341 15.8693 11.7947 16.3546 10.1414 16.2389C8.4882 16.1231 6.93242 15.414 5.7605 14.2422C4.58857 13.0704 3.87939 11.5146 3.76349 9.86142C3.6476 8.20819 4.13279 6.56874 5.12976 5.24486C5.7793 4.3871 6.61903 3.69178 7.58289 3.21361C7.52798 3.59895 7.50031 3.98767 7.50008 4.37689C7.50235 6.53108 8.35911 8.59638 9.88235 10.1196C11.4056 11.6429 13.4709 12.4996 15.6251 12.5019C16.0151 12.5018 16.4046 12.4741 16.7907 12.4191C16.3121 13.3831 15.6162 14.2229 14.7579 14.8722Z" fill="#111112"/>
</svg>