<svg width="20" height="20" viewBox="0 0 20 20" fill="none" xmlns="http://www.w3.org/2000/svg">
<g clip-path="url(#clip0_1552_29)">
<path d="M10 20.0001C10.663 20.0001 11.2989 19.7367 11.7678 19.2679C12.2366 18.799 12.5 18.1632 12.5 17.5001H7.5C7.5 18.1632 7.76339 18.799 8.23223 19.2679C8.70107 19.7367 9.33696 20.0001 10 20.0001ZM10 2.39762L9.00375 2.59887C7.8737 2.82912 6.85791 3.44275 6.12831 4.33589C5.39872 5.22904 5.00012 6.34685 5 7.50012C5 8.28512 4.8325 10.2464 4.42625 12.1776C4.22625 13.1364 3.95625 14.1351 3.5975 15.0001H16.4025C16.0437 14.1351 15.775 13.1376 15.5737 12.1776C15.1675 10.2464 15 8.28512 15 7.50012C14.9996 6.34706 14.6009 5.22955 13.8713 4.33666C13.1417 3.44377 12.1261 2.83032 10.9963 2.60012L10 2.39762ZM17.775 15.0001C18.0538 15.5589 18.3762 16.0014 18.75 16.2501H1.25C1.62375 16.0014 1.94625 15.5589 2.225 15.0001C3.35 12.7501 3.75 8.60012 3.75 7.50012C3.75 4.47512 5.9 1.95012 8.75625 1.37387C8.7388 1.20006 8.75798 1.02452 8.81254 0.858584C8.8671 0.692642 8.95584 0.539979 9.07303 0.41044C9.19022 0.2809 9.33325 0.17736 9.49292 0.106498C9.65258 0.0356353 9.82532 -0.000976562 10 -0.000976562C10.1747 -0.000976563 10.3474 0.0356353 10.5071 0.106498C10.6667 0.17736 10.8098 0.2809 10.927 0.41044C11.0442 0.539979 11.1329 0.692642 11.1875 0.858584C11.242 1.02452 11.2612 1.20006 11.2437 1.37387C12.6566 1.66124 13.9267 2.42807 14.839 3.54449C15.7514 4.66092 16.2498 6.05833 16.25 7.50012C16.25 8.60012 16.65 12.7501 17.775 15.0001Z" fill="#D2D2D2"/>
</g>
<defs>
<clipPath id="clip0_1552_29">
<rect width="20" height="20" fill="white"/>
</clipPath>
</defs>
</svg>
