<svg width="16.000000" height="16.000000" viewBox="0 0 16 16" fill="none" xmlns="http://www.w3.org/2000/svg" xmlns:xlink="http://www.w3.org/1999/xlink">
	<desc>
			Created with Pixso.
	</desc>
	<defs>
		<clipPath id="clip312_14215">
			<rect id="ph:wallet-bold" width="16.000000" height="16.000000" fill="white" fill-opacity="0"/>
		</clipPath>
	</defs>
	<rect id="ph:wallet-bold" width="16.000000" height="16.000000" fill="#FFFFFF" fill-opacity="0"/>
	<g clip-path="url(#clip312_14215)">
		<path id="Vector" d="M12.25 8.5C12.25 8.69 12.19 8.89 12.08 9.05C11.97 9.22 11.81 9.34 11.63 9.42C11.44 9.49 11.24 9.51 11.05 9.48C10.86 9.44 10.68 9.34 10.54 9.2C10.4 9.06 10.3 8.88 10.26 8.69C10.23 8.5 10.25 8.29 10.32 8.11C10.4 7.93 10.52 7.77 10.69 7.66C10.85 7.55 11.05 7.5 11.25 7.5C11.51 7.5 11.76 7.6 11.95 7.79C12.14 7.98 12.25 8.23 12.25 8.5ZM14.75 6.25L14.75 11.25C14.75 11.78 14.53 12.28 14.16 12.66C13.78 13.03 13.28 13.25 12.75 13.25L3.75 13.25C3.21 13.25 2.71 13.03 2.33 12.66C1.96 12.28 1.75 11.78 1.75 11.25L1.75 3.8C1.74 3.54 1.78 3.27 1.88 3.02C1.98 2.77 2.12 2.54 2.31 2.35C2.5 2.16 2.72 2.01 2.97 1.9C3.21 1.8 3.48 1.75 3.75 1.75L12 1.75C12.19 1.75 12.38 1.82 12.53 1.96C12.67 2.11 12.75 2.3 12.75 2.5C12.75 2.69 12.67 2.88 12.53 3.03C12.38 3.17 12.19 3.25 12 3.25L3.75 3.25C3.68 3.25 3.61 3.26 3.55 3.28C3.49 3.31 3.43 3.35 3.39 3.4C3.34 3.45 3.3 3.5 3.28 3.56C3.25 3.63 3.24 3.69 3.25 3.76L3.25 3.77C3.26 3.9 3.32 4.02 3.41 4.11C3.51 4.2 3.64 4.25 3.77 4.25L12.75 4.25C13.28 4.25 13.78 4.46 14.16 4.83C14.53 5.21 14.75 5.71 14.75 6.25ZM13.25 6.25C13.25 6.11 13.19 5.99 13.1 5.89C13 5.8 12.88 5.75 12.75 5.75L3.77 5.75C3.6 5.75 3.42 5.72 3.25 5.68L3.25 11.25C3.25 11.38 3.3 11.5 3.39 11.6C3.49 11.69 3.61 11.75 3.75 11.75L12.75 11.75C12.88 11.75 13 11.69 13.1 11.6C13.19 11.5 13.25 11.38 13.25 11.25L13.25 6.25Z" fill="#2563EB" fill-opacity="1.000000" fill-rule="nonzero"/>
	</g>
</svg>
