<svg width="16.000000" height="16.000000" viewBox="0 0 16 16" fill="none" xmlns="http://www.w3.org/2000/svg" xmlns:xlink="http://www.w3.org/1999/xlink">
	<desc>
			Created with Pixso.
	</desc>
	<defs>
		<clipPath id="clip312_14192">
			<rect id="mdi:dollar" width="16.000000" height="16.000000" fill="white" fill-opacity="0"/>
		</clipPath>
	</defs>
	<rect id="mdi:dollar" width="16.000000" height="16.000000" fill="#FFFFFF" fill-opacity="0"/>
	<g clip-path="url(#clip312_14192)">
		<path id="Vector" d="M4.66 10L6 10C6 10.72 6.91 11.33 8 11.33C9.08 11.33 10 10.72 10 10C10 9.26 9.3 9 7.83 8.64C6.42 8.29 4.66 7.85 4.66 6C4.66 4.8 5.64 3.79 7 3.45L7 2L9 2L9 3.45C10.35 3.79 11.33 4.8 11.33 6L10 6C10 5.27 9.08 4.66 8 4.66C6.91 4.66 6 5.27 6 6C6 6.73 6.69 7 8.15 7.35C9.57 7.7 11.33 8.14 11.33 10C11.33 11.19 10.35 12.2 9 12.54L9 14L7 14L7 12.54C5.64 12.2 4.66 11.19 4.66 10Z" fill="#2563EB" fill-opacity="1.000000" fill-rule="nonzero"/>
	</g>
</svg>
