<svg width="16.000000" height="16.000000" viewBox="0 0 16 16" fill="none" xmlns="http://www.w3.org/2000/svg" xmlns:xlink="http://www.w3.org/1999/xlink">
	<desc>
			Created with Pixso.
	</desc>
	<defs/>
	<path id="Vector" d="M8 1.33C11.68 1.33 14.66 4.31 14.66 8C14.66 11.68 11.68 14.66 8 14.66C4.31 14.66 1.33 11.68 1.33 8C1.33 4.31 4.31 1.33 8 1.33ZM8 2.66C6.58 2.66 5.22 3.22 4.22 4.22C3.22 5.22 2.66 6.58 2.66 8C2.66 9.41 3.22 10.77 4.22 11.77C5.22 12.77 6.58 13.33 8 13.33C9.41 13.33 10.77 12.77 11.77 11.77C12.77 10.77 13.33 9.41 13.33 8C13.33 6.58 12.77 5.22 11.77 4.22C10.77 3.22 9.41 2.66 8 2.66ZM8 4C8.16 4 8.32 4.06 8.44 4.16C8.56 4.27 8.64 4.42 8.66 4.58L8.66 4.66L8.66 7.72L10.47 9.52C10.59 9.64 10.66 9.8 10.66 9.97C10.67 10.14 10.61 10.31 10.49 10.44C10.38 10.56 10.23 10.64 10.06 10.66C9.89 10.67 9.72 10.63 9.59 10.52L9.52 10.47L7.52 8.47C7.42 8.36 7.35 8.23 7.33 8.08L7.33 8L7.33 4.66C7.33 4.49 7.4 4.32 7.52 4.19C7.65 4.07 7.82 4 8 4Z" fill="#2563EB" fill-opacity="1.000000" fill-rule="nonzero"/>
</svg>
