<svg xmlns="http://www.w3.org/2000/svg" width="12" height="12" viewBox="0 0 12 12" fill="none">
  <path fill-rule="evenodd" clip-rule="evenodd" d="M6 11C8.7615 11 11 8.7615 11 6C11 3.2385 8.7615 1 6 1C3.2385 1 1 3.2385 1 6C1 8.7615 3.2385 11 6 11ZM8.6855 4.4175C8.70889 4.3934 8.72719 4.36484 8.7393 4.33352C8.75141 4.30219 8.75708 4.26875 8.75598 4.23519C8.75488 4.20162 8.74703 4.16862 8.7329 4.13816C8.71877 4.10769 8.69864 4.08039 8.67372 4.05788C8.64881 4.03536 8.61961 4.0181 8.58787 4.00711C8.55614 3.99613 8.52251 3.99166 8.48901 3.99396C8.4555 3.99625 8.42281 4.00528 8.39287 4.02049C8.36293 4.0357 8.33636 4.05679 8.31475 4.0825L5.32 7.39175L3.6725 5.819C3.62456 5.77318 3.56039 5.74829 3.49409 5.74979C3.4278 5.75129 3.36482 5.77906 3.319 5.827C3.27318 5.87494 3.24829 5.93911 3.24979 6.00541C3.25129 6.0717 3.27906 6.13468 3.327 6.1805L5.1605 7.9305L5.34625 8.108L5.5185 7.9175L8.6855 4.4175Z" fill="#31BD65"/>
</svg>