<svg xmlns="http://www.w3.org/2000/svg" width="12" height="12" viewBox="0 0 12 12" fill="none">
  <path fill-rule="evenodd" clip-rule="evenodd" d="M11 6C11 8.7615 8.7615 11 6 11C3.2385 11 1 8.7615 1 6C1 3.2385 3.2385 1 6 1C8.7615 1 11 3.2385 11 6ZM4.0555 7.9445C4.00863 7.89762 3.9823 7.83404 3.9823 7.76775C3.9823 7.70146 4.00863 7.63788 4.0555 7.591L5.6465 6L4.0555 4.409C4.00996 4.36185 3.98476 4.2987 3.98533 4.23315C3.9859 4.1676 4.01219 4.1049 4.05855 4.05855C4.1049 4.01219 4.1676 3.9859 4.23315 3.98533C4.2987 3.98476 4.36185 4.00996 4.409 4.0555L6 5.6465L7.591 4.0555C7.63815 4.00996 7.7013 3.98476 7.76685 3.98533C7.8324 3.9859 7.8951 4.01219 7.94145 4.05855C7.98781 4.1049 8.0141 4.1676 8.01467 4.23315C8.01524 4.2987 7.99004 4.36185 7.9445 4.409L6.3535 6L7.9445 7.591C7.99004 7.63815 8.01524 7.7013 8.01467 7.76685C8.0141 7.8324 7.98781 7.8951 7.94145 7.94145C7.8951 7.98781 7.8324 8.0141 7.76685 8.01467C7.7013 8.01524 7.63815 7.99004 7.591 7.9445L6 6.3535L4.409 7.9445C4.36212 7.99137 4.29854 8.0177 4.23225 8.0177C4.16596 8.0177 4.10238 7.99137 4.0555 7.9445Z" fill="#F1507B"/>
</svg>