<svg width="24.000000" height="24.000000" viewBox="0 0 24 24" fill="none" xmlns="http://www.w3.org/2000/svg" xmlns:xlink="http://www.w3.org/1999/xlink">
	<desc>
			Created with Pixso.
	</desc>
	<defs>
		<clipPath id="clip336_5048">
			<rect id="Frame 427319243" rx="6.000000" width="24.000000" height="24.000000" transform="translate(0.000000 -0.500000)" fill="white" fill-opacity="0"/>
		</clipPath>
	</defs>
	<rect id="Frame 427319243" rx="6.000000" width="24.000000" height="24.000000" transform="translate(0.000000 -0.500000)" fill="#282828" fill-opacity="1.000000"/>
	<g clip-path="url(#clip336_5048)">
		<path id="Vector" d="M12 7.59L12 5L15.25 8.25L12 11.5L12 8.9C9.84 8.9 8.1 10.64 8.1 12.79C8.1 14.95 9.84 16.7 12 16.7C14.15 16.7 15.9 14.95 15.9 12.79L17.2 12.79C17.2 15.67 14.87 18 12 18C9.12 18 6.79 15.67 6.79 12.79C6.79 9.92 9.12 7.59 12 7.59Z" fill="#FFFFFF" fill-opacity="1.000000" fill-rule="nonzero"/>
	</g>
</svg>
