      <svg
        width="48.750000"
        height="48.750000"
        viewBox="0 0 48.75 48.75"
        fill="none"
        xmlns="http://www.w3.org/2000/svg"
        xmlns:xlink="http://www.w3.org/1999/xlink"
      >
        <desc>Created with Pixso.</desc>
        <defs />
        <path
          id="Vector"
          d="M23.0208 36.5625L25.7292 36.5625L25.7292 21.6667L23.0208 21.6667L23.0208 36.5625ZM24.375 17.8127C24.8481 17.8127 25.2434 17.6528 25.5613 17.3333C25.8809 17.0137 26.0405 16.6184 26.0405 16.147C26.0405 15.6741 25.8809 15.2776 25.5613 14.958C25.2434 14.6384 24.8481 14.4788 24.375 14.4788C23.9019 14.4788 23.5066 14.6384 23.1887 14.958C22.8691 15.2776 22.7095 15.6741 22.7095 16.147C22.7095 16.6184 22.8691 17.0137 23.1887 17.3333C23.5066 17.6528 23.9019 17.8127 24.375 17.8127ZM24.3831 48.75C21.0139 48.75 17.8452 48.1108 14.877 46.8325C11.9104 45.5522 9.32935 43.8154 7.13379 41.6216C4.93823 39.4297 3.20044 36.8513 1.92017 33.8867C0.640137 30.9219 0 27.7542 0 24.3831C0 21.0139 0.63916 17.8452 1.91748 14.877C3.19775 11.9104 4.93457 9.32935 7.12842 7.13379C9.32031 4.93823 11.8987 3.20044 14.8633 1.92017C17.8281 0.640137 20.9958 0 24.3669 0C27.7361 0 30.9048 0.63916 33.873 1.91748C36.8396 3.19775 39.4207 4.93457 41.6162 7.12842C43.8118 9.32031 45.5496 11.8987 46.8298 14.8633C48.1099 17.8281 48.75 20.9958 48.75 24.3669C48.75 27.7361 48.1108 30.9048 46.8325 33.873C45.5522 36.8396 43.8154 39.4207 41.6216 41.6162C39.4297 43.8118 36.8513 45.5496 33.8867 46.8298C30.9219 48.1099 27.7542 48.75 24.3831 48.75ZM24.375 46.0417C30.4236 46.0417 35.5469 43.9426 39.7449 39.7449C43.9426 35.5469 46.0417 30.4236 46.0417 24.375C46.0417 18.3264 43.9426 13.2031 39.7449 9.00513C35.5469 4.80737 30.4236 2.70825 24.375 2.70825C18.3264 2.70825 13.2031 4.80737 9.00513 9.00513C4.80737 13.2031 2.70825 18.3264 2.70825 24.375C2.70825 30.4236 4.80737 35.5469 9.00513 39.7449C13.2031 43.9426 18.3264 46.0417 24.375 46.0417Z"
          fill="#0077FF"
          fill-opacity="1.000000"
          fill-rule="nonzero"
        />
      </svg>