<svg width="16.000000" height="16.000000" viewBox="0 0 16 16" fill="none" xmlns="http://www.w3.org/2000/svg" xmlns:xlink="http://www.w3.org/1999/xlink">
	<desc>
			Created with Pixso.
	</desc>
	<defs/>
	<rect id="TetherBadge" rx="3.000000" width="16.000000" height="16.000000" transform="translate(0.000000 -0.500000)" fill="#50AF95" fill-opacity="1.000000"/>
	<path id="Vector" d="M8.03 2.88C9.27 2.88 10.46 2.88 11.7 2.88C11.8 2.88 11.85 2.93 11.85 2.98C12.54 4.53 13.23 6.04 13.97 7.54C14.02 7.59 13.97 7.64 13.93 7.69C13.08 8.54 12.24 9.4 11.35 10.25C10.26 11.3 9.12 12.4 8.03 13.46C7.94 13.51 7.94 13.51 7.89 13.46C6.8 12.4 5.71 11.35 4.62 10.25C3.78 9.4 2.89 8.54 2.04 7.69C2 7.64 2 7.59 2 7.54C2.34 6.74 2.74 5.99 3.08 5.18C3.43 4.43 3.78 3.73 4.12 2.98C4.17 2.88 4.22 2.83 4.37 2.83C5.61 2.88 6.8 2.83 8.03 2.88ZM8.08 4.23C7.19 4.23 6.25 4.23 5.36 4.23C5.31 4.23 5.31 4.23 5.26 4.23C5.21 4.23 5.21 4.23 5.21 4.28C5.21 4.73 5.21 5.18 5.16 5.69C5.16 5.74 5.16 5.74 5.21 5.74C5.36 5.74 5.51 5.74 5.66 5.74C6.15 5.74 6.65 5.74 7.14 5.74C7.19 5.74 7.19 5.74 7.24 5.74C7.29 5.74 7.29 5.79 7.29 5.84C7.29 6.04 7.29 6.29 7.29 6.49C7.29 6.54 7.29 6.54 7.24 6.59C6.9 6.64 6.55 6.64 6.2 6.69C5.76 6.74 5.31 6.84 4.92 6.99C4.72 7.04 4.57 7.14 4.42 7.24C4.27 7.39 4.27 7.59 4.42 7.69C4.52 7.79 4.62 7.84 4.72 7.89C5.06 8.04 5.41 8.09 5.76 8.19C6.25 8.29 6.75 8.34 7.24 8.39C7.34 8.39 7.34 8.39 7.34 8.49C7.34 9.4 7.34 10.35 7.34 11.25C7.34 11.35 7.34 11.35 7.44 11.35C7.89 11.35 8.38 11.35 8.83 11.35C8.97 11.35 8.97 11.35 8.97 11.2C8.97 10.45 8.97 9.75 8.97 9C8.97 8.79 8.97 8.59 8.97 8.39C8.97 8.29 9.02 8.29 9.07 8.29C9.57 8.29 10.01 8.24 10.51 8.14C10.91 8.09 11.25 7.99 11.6 7.84C11.7 7.79 11.8 7.69 11.9 7.64C11.99 7.54 11.99 7.44 11.9 7.34C11.8 7.29 11.75 7.19 11.65 7.14C11.05 6.79 10.36 6.64 9.67 6.59C9.47 6.59 9.27 6.59 9.07 6.54C9.02 6.54 9.02 6.54 9.02 6.44C9.02 6.24 9.02 5.99 9.02 5.79C9.02 5.74 9.02 5.69 9.12 5.69C9.27 5.69 9.42 5.69 9.57 5.69C10.06 5.69 10.51 5.69 11 5.69C11.1 5.69 11.1 5.64 11.1 5.59C11.1 5.54 11.1 5.54 11.1 5.49C11.1 5.08 11.1 4.68 11.1 4.23C11.1 4.13 11.1 4.13 11 4.13C9.92 4.23 8.97 4.23 8.08 4.23Z" fill="#FFFFFF" fill-opacity="1.000000" fill-rule="nonzero"/>
	<path id="Vector" d="M7.84 8.04C7.49 8.04 7.19 8.04 6.85 7.99C6.3 7.94 5.71 7.89 5.16 7.69C5.06 7.64 4.96 7.59 4.82 7.54C4.67 7.44 4.67 7.34 4.82 7.29C5.01 7.19 5.21 7.14 5.41 7.09C5.81 6.99 6.2 6.94 6.65 6.89C6.8 6.89 6.99 6.84 7.14 6.84C7.19 6.84 7.24 6.84 7.24 6.94C7.24 7.24 7.24 7.49 7.24 7.79C7.24 7.89 7.29 7.89 7.34 7.89C7.74 7.89 8.13 7.89 8.48 7.89C8.58 7.89 8.68 7.89 8.78 7.89C8.88 7.89 8.88 7.89 8.88 7.79C8.88 7.54 8.88 7.29 8.88 7.04C8.88 6.89 8.88 6.89 9.02 6.89C9.67 6.94 10.31 6.99 10.95 7.19C11.05 7.24 11.2 7.29 11.3 7.34C11.4 7.39 11.4 7.49 11.3 7.54C11.1 7.69 10.91 7.74 10.66 7.79C10.16 7.89 9.67 7.99 9.17 7.99C8.78 7.99 8.28 8.04 7.84 8.04Z" fill="#FFFFFF" fill-opacity="1.000000" fill-rule="nonzero"/>
</svg>
