<svg width="16.000000" height="16.000000" viewBox="0 0 16 16" fill="none" xmlns="http://www.w3.org/2000/svg" xmlns:xlink="http://www.w3.org/1999/xlink">
	<desc>
			Created with Pixso.
	</desc>
	<defs>
		<clipPath id="clip264_7322">
			<rect id="gg:check-o" width="16.000000" height="16.000000" transform="translate(0.000000 -0.500000)" fill="white" fill-opacity="0"/>
		</clipPath>
	</defs>
	<rect id="gg:check-o" width="16.000000" height="16.000000" transform="translate(0.000000 -0.500000)" fill="#FFFFFF" fill-opacity="0"/>
	<g clip-path="url(#clip264_7322)">
		<path id="Vector" d="M6.82 10.37L4 7.54L4.94 6.6L6.82 8.48L10.59 4.71L11.54 5.66L6.82 10.37Z" fill="#16A34A" fill-opacity="1.000000" fill-rule="nonzero"/>
		<path id="Vector" d="M0.66 7.5C0.66 3.45 3.94 0.16 7.99 0.16C12.05 0.16 15.33 3.45 15.33 7.5C15.33 11.55 12.05 14.83 7.99 14.83C3.94 14.83 0.66 11.55 0.66 7.5ZM7.99 13.5C7.21 13.5 6.43 13.34 5.7 13.04C4.97 12.74 4.31 12.29 3.75 11.74C3.2 11.18 2.75 10.52 2.45 9.79C2.15 9.06 1.99 8.28 1.99 7.5C1.99 6.71 2.15 5.93 2.45 5.2C2.75 4.47 3.2 3.81 3.75 3.25C4.31 2.7 4.97 2.25 5.7 1.95C6.43 1.65 7.21 1.5 7.99 1.5C9.59 1.5 11.11 2.13 12.24 3.25C13.36 4.38 14 5.9 14 7.5C14 9.09 13.36 10.61 12.24 11.74C11.11 12.86 9.59 13.5 7.99 13.5Z" fill="#16A34A" fill-opacity="1.000000" fill-rule="evenodd"/>
	</g>
</svg>
