<svg xmlns="http://www.w3.org/2000/svg" width="18" height="18" viewBox="0 0 18 18" fill="none">
  <g clip-path="url(#clip0_618_22282)">
    <path d="M9.75 2.25C9.94116 2.25021 10.125 2.32341 10.264 2.45464C10.403 2.58586 10.4867 2.76521 10.4979 2.95605C10.5091 3.14688 10.447 3.33478 10.3243 3.48137C10.2016 3.62796 10.0276 3.72217 9.83775 3.74475L9.75 3.75H3.75V14.25H14.25V8.25C14.2502 8.05884 14.3234 7.87498 14.4546 7.73597C14.5859 7.59697 14.7652 7.51332 14.956 7.50212C15.1469 7.49092 15.3348 7.55301 15.4814 7.6757C15.628 7.79839 15.7222 7.97243 15.7448 8.16225L15.75 8.25V14.25C15.7501 14.6284 15.6072 14.9929 15.3499 15.2704C15.0926 15.5479 14.7399 15.7179 14.3625 15.7463L14.25 15.75H3.75C3.37157 15.7501 3.00708 15.6072 2.72959 15.3499C2.4521 15.0926 2.28213 14.7399 2.25375 14.3625L2.25 14.25V3.75C2.24988 3.37157 2.3928 3.00708 2.65012 2.72959C2.90744 2.4521 3.26013 2.28213 3.6375 2.25375L3.75 2.25H9.75ZM14.4323 2.50725C14.5672 2.37274 14.7483 2.29464 14.9388 2.28883C15.1293 2.28301 15.3148 2.34991 15.4577 2.47594C15.6006 2.60196 15.6902 2.77766 15.7083 2.96736C15.7264 3.15705 15.6716 3.34651 15.555 3.49725L15.4928 3.5685L8.06775 10.9928C7.93278 11.1273 7.75167 11.2054 7.56121 11.2112C7.37075 11.217 7.18522 11.1501 7.04229 11.0241C6.89937 10.898 6.80977 10.7223 6.7917 10.5326C6.77363 10.343 6.82844 10.1535 6.945 10.0027L7.00725 9.93225L14.4323 2.50725Z" fill="white"/>
  </g>
  <defs>
    <clipPath id="clip0_618_22282">
      <rect width="18" height="18" fill="white"/>
    </clipPath>
  </defs>
</svg>