<?xml version="1.0" standalone="no"?>
<!DOCTYPE svg PUBLIC "-//W3C//DTD SVG 20010904//EN"
 "http://www.w3.org/TR/2001/REC-SVG-20010904/DTD/svg10.dtd">
<svg version="1.0" xmlns="http://www.w3.org/2000/svg"
 width="700.000000pt" height="700.000000pt" viewBox="0 0 700.000000 700.000000"
 preserveAspectRatio="xMidYMid meet">
<metadata>
Created by potrace 1.14, written by Peter Selinger 2001-2017
</metadata>
<g transform="translate(0.000000,700.000000) scale(0.100000,-0.100000)"
fill="#000000" stroke="none">
<path d="M1979 6996 c-2 -2 -74 -6 -159 -10 -85 -3 -166 -8 -180 -10 -14 -2
-54 -7 -90 -11 -82 -8 -121 -13 -190 -26 -30 -6 -68 -13 -84 -15 -15 -3 -76
-21 -135 -40 -436 -143 -852 -547 -1010 -980 -30 -81 -76 -273 -85 -354 -3
-25 -8 -63 -11 -85 -26 -195 -30 -444 -30 -1980 0 -1682 3 -1797 51 -2095 72
-440 329 -830 724 -1094 230 -154 432 -224 755 -260 122 -14 143 -16 270 -23
307 -18 3396 -8 3555 11 19 3 60 7 90 11 110 11 146 16 188 26 23 5 59 12 80
15 66 11 240 72 324 115 333 167 620 459 777 790 77 161 122 336 146 564 3 28
8 68 10 90 16 150 20 518 20 1870 0 1504 -4 1771 -30 1960 -3 22 -8 60 -11 85
-11 86 -56 274 -84 351 -105 285 -312 554 -588 762 -34 26 -64 47 -67 47 -2 0
-21 12 -42 26 -56 38 -197 108 -278 137 -79 28 -271 72 -355 82 -30 3 -62 8
-70 10 -8 2 -55 7 -105 10 -49 4 -112 9 -140 12 -57 6 -3240 14 -3246 9z
m1552 -1231 c67 -6 256 -47 294 -64 196 -87 274 -136 367 -225 152 -148 239
-310 274 -509 79 -456 -127 -873 -606 -1223 -91 -66 -228 -153 -324 -205 -17
-9 -31 -20 -33 -25 -2 -5 30 -50 70 -99 39 -50 86 -108 102 -130 17 -21 44
-55 60 -74 17 -20 55 -67 85 -106 30 -38 57 -72 60 -75 3 -3 17 -21 31 -40 15
-19 35 -45 45 -57 11 -12 57 -72 104 -132 47 -60 89 -108 94 -107 8 2 99 153
441 739 l150 257 303 0 303 0 -27 -48 c-15 -26 -31 -51 -34 -57 -4 -5 -19 -30
-32 -55 -14 -25 -78 -135 -143 -245 -167 -284 -271 -461 -355 -605 -41 -69
-116 -194 -168 -278 l-94 -152 38 -48 c21 -26 41 -49 44 -52 3 -3 25 -32 50
-65 81 -108 200 -219 276 -256 l69 -34 210 -1 c115 -1 217 -2 225 -3 13 -1 15
-35 15 -251 0 -243 0 -250 -20 -250 -107 -3 -586 1 -605 4 -14 3 -43 7 -64 11
-106 15 -231 76 -314 151 -33 30 -107 113 -163 185 -56 71 -105 129 -109 127
-4 -2 -38 -37 -76 -78 -88 -95 -151 -153 -236 -218 -94 -70 -164 -111 -290
-166 -64 -28 -194 -59 -300 -72 -99 -12 -412 -5 -437 10 -3 2 -28 7 -56 10
-27 4 -68 12 -90 18 -22 6 -44 12 -50 14 -5 1 -39 12 -75 24 -267 90 -497 269
-626 488 -76 129 -132 284 -151 421 -10 69 -10 308 0 377 30 214 144 462 292
634 139 162 402 366 568 441 15 7 27 15 27 19 0 4 -26 41 -58 81 -337 431
-445 730 -395 1094 46 341 247 616 569 778 128 64 309 114 454 124 47 3 86 7
88 8 4 3 149 -3 223 -10z"/>
<path d="M3195 5255 c-213 -44 -342 -163 -400 -366 -17 -60 -23 -201 -11 -259
39 -191 166 -425 373 -689 10 -14 279 149 388 235 103 81 140 116 200 189 194
238 187 591 -14 770 -64 57 -156 103 -241 120 -64 13 -235 13 -295 0z"/>
<path d="M2895 3219 c-326 -186 -472 -343 -531 -569 -26 -97 -23 -290 4 -399
37 -142 102 -253 203 -344 133 -121 308 -180 514 -172 145 5 203 19 319 76
121 60 272 190 381 328 l43 53 -80 102 c-44 55 -92 117 -106 136 -15 19 -43
55 -62 80 -76 95 -154 195 -365 465 -120 154 -221 283 -225 287 -3 5 -46 -15
-95 -43z"/>
</g>
</svg>
