<svg xmlns="http://www.w3.org/2000/svg" width="120" height="36" viewBox="0 0 120 36" fill="none">
  <rect width="120" height="36" rx="18" fill="#111112"/>
  <rect x="0.5" y="0.5" width="119" height="35" rx="17.5" stroke="white" stroke-opacity="0.15"/>
  <path fill-rule="evenodd" clip-rule="evenodd" d="M21.8179 22.024C22.3309 22.7124 22.7563 23 23.1378 23H24.4796V24.7778H22.8045C21.8442 24.7778 21.2172 24.4684 20.7699 23.8671L20.1584 23.0582C18.9526 24.5333 17.8977 25 16.4946 25C13.7891 25 12 23.2876 12 20.8431C12 18.9561 13.0896 17.3813 15.0763 16.3347L14.8414 16.024C13.8592 14.7342 13.4777 13.8017 13.4777 12.7342C13.4777 10.512 15.1922 9 17.4768 9C19.7614 9 21.2829 10.4858 21.2829 12.4641C21.2829 14.2021 20.21 15.6676 17.9184 16.9465L20.1677 19.8753C20.203 19.814 20.2385 19.7517 20.2744 19.6885L22.1731 16.3333H24.2296L22.1292 20.0458C21.8502 20.5382 21.5854 20.9853 21.3314 21.3905L21.8179 22.024ZM19.0574 21.6015L16.1957 17.8155C14.6014 18.6631 14.0127 19.4297 14.0127 20.6427C14.0127 22.22 15.0212 23.2222 16.4507 23.2222C17.4098 23.2222 18.1694 22.7825 19.0574 21.6015ZM16.7866 15.4669C18.5146 14.5516 19.2615 13.6681 19.2615 12.5991C19.2615 11.488 18.5467 10.7778 17.3847 10.7778C16.2227 10.7778 15.486 11.5098 15.486 12.6427C15.486 13.3949 15.8218 14.1624 16.7866 15.4669Z" fill="white"/>
  <path d="M31.9471 24.7778L26.2686 9.22222H28.5269L33.0434 21.8017L37.5599 9.22222H39.8181L34.1396 24.7778H31.9471Z" fill="white"/>
  <path fill-rule="evenodd" clip-rule="evenodd" d="M45.409 25C41.9185 25 39.5945 22.6906 39.5945 19.2222C39.5945 15.7538 41.9185 13.4444 45.409 13.4444C48.8994 13.4444 51.2234 15.7538 51.2234 19.2222C51.2234 22.6906 48.8994 25 45.409 25ZM45.409 15.2222C43.1288 15.2222 41.6072 16.8213 41.6072 19.2222C41.6072 21.6231 43.1288 23.2222 45.409 23.2222C47.6891 23.2222 49.2107 21.6231 49.2107 19.2222C49.2107 16.8213 47.6891 15.2222 45.409 15.2222Z" fill="white"/>
  <path d="M58.156 9.22222H52.7888V11H56.1433V23H52.7888V24.7778H61.5105V23H58.156V9.22222Z" fill="white"/>
  <path d="M74.2576 13.6667H72.2449L72.2449 19.2222C72.2449 21.6231 70.8592 23.2222 68.8027 23.2222C66.9698 23.2222 65.7595 21.976 65.7595 20.1111V13.6667H63.7468V20.1111C63.7468 23.0218 65.6236 25 68.3993 25C70.0419 25 71.3891 24.3053 72.2708 23.1056L72.4685 24.7778H74.2576V13.6667Z" fill="white"/>
  <path d="M76.9412 24.7778H78.9539V18.7734H78.9582C78.9582 16.4641 79.9185 15.2179 81.7558 15.2179C83.4791 15.2179 84.3736 16.329 84.3736 18.3943V24.7734H86.3863V18.518C86.4598 16.3751 87.4571 15.2222 89.2453 15.2222C90.8985 15.2222 91.793 16.22 91.793 18.1111V24.7778H93.8057V17.5534C93.8057 15.0654 92.1745 13.4444 89.6926 13.4444C87.9772 13.4444 86.627 14.217 85.8326 15.5531C85.1529 14.2375 83.885 13.4401 82.2689 13.4401C80.8663 13.4401 79.7038 14.049 78.9223 15.0963L78.7302 13.6667H76.9412V24.7778Z" fill="white"/>
  <path fill-rule="evenodd" clip-rule="evenodd" d="M101.742 25C98.1687 25 95.8184 22.7124 95.8184 19.2222H95.814C95.814 15.7974 98.0723 13.5098 101.405 13.5098C104.737 13.5098 106.996 15.8235 106.996 19.2222V19.7756H97.8509C98.0486 21.9665 99.449 23.2222 101.764 23.2222C103.553 23.2222 104.786 22.4684 105.031 21.2222H107C106.706 23.488 104.628 25 101.742 25ZM97.9248 18.1111H104.879C104.524 16.3339 103.279 15.2876 101.405 15.2876C99.5207 15.2876 98.2715 16.2835 97.9248 18.1111Z" fill="white"/>
</svg>