<svg width="20.000000" height="20.000000" viewBox="0 0 20 20" fill="none" xmlns="http://www.w3.org/2000/svg" xmlns:xlink="http://www.w3.org/1999/xlink">
	<desc>
			Created with Pixso.
	</desc>
	<defs>
		<clipPath id="clip475_4183">
			<rect id="Frame" width="20.000000" height="20.000000" fill="white" fill-opacity="0"/>
		</clipPath>
	</defs>
	<rect id="Frame" width="20.000000" height="20.000000" fill="#FFFFFF" fill-opacity="0"/>
	<g clip-path="url(#clip475_4183)">
		<path id="Vector" d="M13.75 1.66C13.51 1.66 13.33 1.85 13.33 2.08L13.33 4.47L12.08 4.47C11.39 4.47 10.83 5.03 10.83 5.72L10.83 13.74C10.83 14.43 11.39 14.99 12.08 14.99L13.33 14.99L13.33 17.91C13.33 18.14 13.51 18.33 13.75 18.33L14.58 18.33C14.81 18.33 15 18.14 15 17.91L15 14.99L16.25 14.99C16.93 14.99 17.5 14.43 17.5 13.74L17.5 5.72C17.5 5.03 16.93 4.47 16.25 4.47L15 4.47L15 2.08C15 1.85 14.81 1.66 14.58 1.66L13.75 1.66ZM5 4.58C5 4.35 5.18 4.16 5.41 4.16L6.25 4.16C6.48 4.16 6.66 4.35 6.66 4.58L6.66 9.16L7.91 9.16C8.6 9.16 9.16 9.72 9.16 10.41L9.16 15.41C9.16 16.1 8.6 16.66 7.91 16.66L6.66 16.66L6.66 17.91C6.66 18.14 6.48 18.33 6.25 18.33L5.41 18.33C5.18 18.33 5 18.14 5 17.91L5 16.66L3.75 16.66C3.06 16.66 2.5 16.1 2.5 15.41L2.5 10.41C2.5 9.72 3.06 9.16 3.75 9.16L5 9.16L5 4.58ZM12.5 13.33L12.5 6.14L15.83 6.14L15.83 13.33L12.5 13.33ZM4.16 14.99L4.16 10.83L7.5 10.83L7.5 14.99L4.16 14.99Z" fill="#FFFFFF" fill-opacity="1.000000" fill-rule="evenodd"/>
	</g>
</svg>
