<svg width="20.000000" height="20.000000" viewBox="0 0 20 20" fill="none" xmlns="http://www.w3.org/2000/svg" xmlns:xlink="http://www.w3.org/1999/xlink">
	<desc>
			Created with Pixso.
	</desc>
	<defs/>
	<path id="Vector" d="M8.33 2.5C8.88 2.5 9.44 2.71 10 3.13C10.55 2.71 11.1 2.5 11.66 2.5L16.66 2.5C17.1 2.5 17.53 2.67 17.84 2.98C18.15 3.3 18.33 3.72 18.33 4.16L18.33 15C18.33 15.44 18.15 15.86 17.84 16.17C17.53 16.49 17.1 16.66 16.66 16.66L10.83 16.66C10.83 17.12 10.45 17.5 10 17.5C9.54 17.5 9.16 17.12 9.16 16.66L3.33 16.66C2.89 16.66 2.46 16.49 2.15 16.17C1.84 15.86 1.66 15.44 1.66 15L1.66 4.16C1.66 3.72 1.84 3.3 2.15 2.98C2.46 2.67 2.89 2.5 3.33 2.5L8.33 2.5ZM8.33 4.16L3.33 4.16L3.33 15L9.16 15L9.16 5C9.16 4.54 8.79 4.16 8.33 4.16ZM16.66 4.16L11.66 4.16C11.2 4.16 10.83 4.54 10.83 5L10.83 15L16.66 15L16.66 4.16Z" fill="#FFFFFF" fill-opacity="1.000000" fill-rule="evenodd"/>
</svg>
