<svg width="20.000000" height="20.000000" viewBox="0 0 20 20" fill="none" xmlns="http://www.w3.org/2000/svg" xmlns:xlink="http://www.w3.org/1999/xlink">
	<desc>
			Created with Pixso.
	</desc>
	<defs>
		<clipPath id="clip475_4233">
			<rect id="Frame" width="20.000000" height="20.000000" fill="white" fill-opacity="0"/>
		</clipPath>
	</defs>
	<rect id="Frame" width="20.000000" height="20.000000" fill="#FFFFFF" fill-opacity="0"/>
	<g clip-path="url(#clip475_4233)">
		<path id="Vector" d="M11.25 5.41C11.25 4.49 11.99 3.75 12.91 3.75C13.83 3.75 14.58 4.49 14.58 5.41C14.58 6.33 13.83 7.08 12.91 7.08C11.99 7.08 11.25 6.33 11.25 5.41ZM12.91 2.08C11.07 2.08 9.58 3.57 9.58 5.41C9.58 7.25 11.07 8.75 12.91 8.75C14.75 8.75 16.25 7.25 16.25 5.41C16.25 3.57 14.75 2.08 12.91 2.08ZM5 8.33C5 7.64 5.56 7.08 6.25 7.08C6.93 7.08 7.5 7.64 7.5 8.33C7.5 9.02 6.93 9.58 6.25 9.58C5.56 9.58 5 9.02 5 8.33ZM6.25 5.41C4.63 5.41 3.33 6.72 3.33 8.33C3.33 9.94 4.63 11.25 6.25 11.25C7.86 11.25 9.16 9.94 9.16 8.33C9.16 6.72 7.86 5.41 6.25 5.41ZM8.33 14.16C8.33 11.63 10.38 9.58 12.91 9.58C15.44 9.58 17.5 11.63 17.5 14.16L17.5 18.33L15.83 18.33L15.83 14.16C15.83 12.55 14.52 11.25 12.91 11.25C11.3 11.25 10 12.55 10 14.16L10 18.33L8.33 18.33L8.33 14.16ZM4.16 15.83C4.16 14.68 5.09 13.75 6.25 13.75C6.71 13.75 7.08 13.37 7.08 12.91C7.08 12.45 6.71 12.08 6.25 12.08C4.17 12.08 2.5 13.76 2.5 15.83L2.5 18.33L4.16 18.33L4.16 15.83Z" fill="#FFFFFF" fill-opacity="1.000000" fill-rule="evenodd"/>
	</g>
</svg>
