<svg width="20.000000" height="20.000000" viewBox="0 0 20 20" fill="none" xmlns="http://www.w3.org/2000/svg" xmlns:xlink="http://www.w3.org/1999/xlink">
	<desc>
			Created with Pixso.
	</desc>
	<defs>
		<clipPath id="clip475_4212">
			<rect id="solar:settings-linear" rx="-0.500000" width="19.000000" height="19.000000" transform="translate(0.500000 0.500000)" fill="white" fill-opacity="0"/>
		</clipPath>
	</defs>
	<rect id="solar:settings-linear" rx="-0.500000" width="19.000000" height="19.000000" transform="translate(0.500000 0.500000)" fill="#FFFFFF" fill-opacity="0"/>
	<g clip-path="url(#clip475_4212)">
		<path id="Vector" d="M10 12.5C8.61 12.5 7.5 11.38 7.5 10C7.5 8.61 8.61 7.5 10 7.5C11.38 7.5 12.5 8.61 12.5 10C12.5 11.38 11.38 12.5 10 12.5Z" stroke="#FFFFFF" stroke-opacity="1.000000" stroke-width="1.500000"/>
		<path id="Vector" d="M10 1.66C9.22 1.66 8.83 1.66 8.52 1.79C8.32 1.87 8.14 1.99 7.98 2.15C7.83 2.3 7.7 2.49 7.62 2.69C7.54 2.88 7.51 3.09 7.5 3.41C7.5 3.64 7.43 3.86 7.32 4.06C7.2 4.26 7.04 4.42 6.84 4.54C6.64 4.65 6.42 4.71 6.19 4.71C5.96 4.71 5.74 4.65 5.54 4.54C5.26 4.4 5.06 4.31 4.85 4.29C4.42 4.23 3.97 4.35 3.62 4.62C3.36 4.82 3.17 5.16 2.78 5.83C2.39 6.5 2.19 6.84 2.15 7.16C2.12 7.38 2.14 7.6 2.19 7.81C2.25 8.03 2.35 8.22 2.48 8.4C2.6 8.56 2.78 8.69 3.05 8.86C3.44 9.11 3.69 9.53 3.69 9.99C3.69 10.46 3.44 10.88 3.05 11.13C2.78 11.3 2.6 11.43 2.48 11.59C2.35 11.76 2.25 11.96 2.19 12.17C2.14 12.39 2.12 12.61 2.15 12.82C2.2 13.15 2.39 13.49 2.78 14.16C3.17 14.83 3.36 15.17 3.62 15.37C3.8 15.5 4 15.6 4.21 15.66C4.42 15.72 4.64 15.73 4.85 15.7C5.06 15.68 5.26 15.59 5.54 15.45C5.74 15.34 5.96 15.28 6.19 15.28C6.42 15.28 6.64 15.34 6.84 15.45C7.25 15.69 7.49 16.11 7.5 16.58C7.51 16.9 7.54 17.11 7.62 17.3C7.7 17.5 7.83 17.68 7.98 17.84C8.14 17.99 8.32 18.12 8.52 18.2C8.83 18.33 9.22 18.33 10 18.33C10.77 18.33 11.16 18.33 11.47 18.2C11.67 18.12 11.85 17.99 12.01 17.84C12.16 17.68 12.28 17.5 12.37 17.3C12.44 17.11 12.48 16.9 12.49 16.58C12.5 16.11 12.74 15.68 13.15 15.45C13.34 15.34 13.57 15.28 13.8 15.28C14.03 15.28 14.25 15.34 14.45 15.45C14.73 15.59 14.93 15.68 15.13 15.7C15.35 15.73 15.57 15.72 15.78 15.66C16 15.6 16.19 15.5 16.37 15.37C16.63 15.17 16.82 14.83 17.21 14.16C17.6 13.49 17.79 13.15 17.84 12.82C17.87 12.61 17.85 12.39 17.79 12.17C17.74 11.96 17.64 11.76 17.51 11.59C17.38 11.43 17.21 11.3 16.94 11.13C16.75 11.01 16.59 10.84 16.47 10.65C16.36 10.45 16.3 10.22 16.3 9.99C16.3 9.53 16.55 9.11 16.94 8.86C17.21 8.69 17.38 8.56 17.51 8.4C17.64 8.22 17.74 8.03 17.79 7.81C17.85 7.6 17.87 7.38 17.84 7.16C17.79 6.84 17.6 6.5 17.21 5.83C16.82 5.16 16.63 4.82 16.37 4.62C16.19 4.48 16 4.39 15.78 4.33C15.57 4.27 15.35 4.26 15.13 4.29C14.93 4.31 14.73 4.4 14.45 4.54C14.25 4.65 14.02 4.71 13.8 4.71C13.57 4.71 13.34 4.65 13.15 4.54C12.95 4.42 12.79 4.26 12.67 4.06C12.56 3.86 12.49 3.64 12.49 3.41C12.48 3.09 12.45 2.88 12.37 2.69C12.28 2.49 12.16 2.3 12.01 2.15C11.85 1.99 11.67 1.87 11.47 1.79C11.16 1.66 10.77 1.66 10 1.66Z" stroke="#FFFFFF" stroke-opacity="1.000000" stroke-width="1.500000"/>
	</g>
</svg>
