<svg width="20.000000" height="20.000000" viewBox="0 0 20 20" fill="none" xmlns="http://www.w3.org/2000/svg" xmlns:xlink="http://www.w3.org/1999/xlink">
	<desc>
			Created with Pixso.
	</desc>
	<defs>
		<clipPath id="clip475_4222">
			<rect id="Frame" width="20.000000" height="20.000000" fill="white" fill-opacity="0"/>
		</clipPath>
	</defs>
	<rect id="Frame" width="20.000000" height="20.000000" fill="#FFFFFF" fill-opacity="0"/>
	<g clip-path="url(#clip475_4222)">
		<path id="Vector" d="M11.25 2.5C11.7 2.5 12.08 2.87 12.08 3.33C12.08 3.79 11.7 4.16 11.25 4.16L5 4.16C4.76 4.16 4.58 4.35 4.58 4.58L4.58 15.41C4.58 15.64 4.76 15.83 5 15.83L11.25 15.83C11.7 15.83 12.08 16.2 12.08 16.66C12.08 17.12 11.7 17.5 11.25 17.5L5 17.5C3.84 17.5 2.91 16.56 2.91 15.41L2.91 4.58C2.91 3.43 3.84 2.5 5 2.5L11.25 2.5Z" fill="#FFFFFF" fill-opacity="1.000000" fill-rule="nonzero"/>
		<path id="Vector" d="M14.33 6.91C14.01 6.58 13.48 6.58 13.16 6.91C12.83 7.23 12.83 7.76 13.16 8.08L14.23 9.16L8.33 9.16C7.87 9.16 7.5 9.53 7.5 9.99C7.5 10.46 7.87 10.83 8.33 10.83L14.23 10.83L13.16 11.91C12.83 12.23 12.83 12.76 13.16 13.08C13.48 13.41 14.01 13.41 14.33 13.08L16.83 10.58C17.16 10.26 17.16 9.73 16.83 9.41L14.33 6.91Z" fill="#FFFFFF" fill-opacity="1.000000" fill-rule="nonzero"/>
	</g>
</svg>
